<svg version="1.0" width="2240" height="1260" viewBox="400 20 400 550" xmlns="http://www.w3.org/2000/svg" xmlns:xlink="http://www.w3.org/1999/xlink" xmlns:bx="https://boxy-svg.com">
  <path d="M3720 5038c-53-27-138-131-139-169-1-18 431-1146 526-1376 2-6 20-19 38-27 29-14 101-16 559-16h526v-30c0-32 34-130 59-170 58-94 155-173 251-205 30-10 50-23 50-31 0-12-6-13-22-7-13 4-99 8-191 8-211 0-207 3-207-146 0-122 11-139 90-139h51l29-65c16-36 31-65 33-65 3 0 23 29 46 65l40 65h51c77 0 90 19 90 126 0 78 2 85 18 78 9-4 39-9 66-12l48-4 26-59c14-32 29-59 33-59s24 26 43 59c36 58 36 59 91 63 30 3 63 12 72 21 17 15 18 11 18-73 0-111 12-128 92-132l55-3 26-62c14-35 28-63 32-63 3 0 25 29 48 65l41 65h49c38 0 53 5 70 23 19 20 22 35 22 115 0 89 1 92 19 82 11-5 39-10 64-10h43l30-67 29-67 42 67c42 66 43 67 86 67 24 0 52 7 63 16 19 15 19 16-1 8-11-4-42-9-68-12-45-4-49-7-84-60l-37-57-25 56-25 57-54 4c-79 7-92 26-92 135 0 76 2 86 25 108 24 24 28 25 185 25 215 0 199 18 199-232 0-232 4-241 92-246l54-3 31-67 30-67 43 68 43 67h48c32 0 55 6 71 19 22 18 24 26 24 120 0 91-2 103-23 123-21 22-32 23-176 26-116 3-162 0-187-11l-34-14 3 59c5 77-4 124-29 149-17 17-34 19-189 19-168 0-171 0-195-25-23-22-25-32-25-112v-88l-186 3c-165 3-188 1-205-14-18-16-19-16-19 3 0 16 8 22 38 27 61 9 157 63 215 121 63 62 123 173 133 246l7 49 583 2c321 2 584 2 584 0 0-1-9-20-20-42-71-139-65-347 15-499 183-348 641-412 917-129 54 56 111 152 129 218 11 42 17 48 73 75l61 30-1 45c-1 88-24 120-89 120-19 0-24 7-30 38-8 48-76 185-94 191-10 2-7-6 8-27 26-38 50-91 67-155l12-48-41 3c-39 3-42 5-49 41-9 42-37 102-44 94-3-3 2-29 10-58 36-119 4-266-77-356-11-13-18-26-14-29 3-3 19 13 36 37 42 58 39 40-4-26-49-73-125-141-193-173-51-24-69-27-163-27-101 0-108 1-181 38-111 55-200 163-223 272l-6 30 15-25c19-32 20-17 1 35-22 61-19 183 5 249 40 106 129 195 237 237 74 28 198 36 271 16 28-8 52-11 52-7 0 15-81 30-158 30-192 0-347-102-415-274-17-41-21-75-21-171-1-118-1-121 36-198 46-95 112-163 205-209 65-32 73-33 183-33 103 0 121 3 170 26 69 32 155 110 200 182 34 54 35 54 98 64l63 9-6-25c-16-70-80-177-144-240-108-108-236-161-390-161-160 0-282 50-396 165-137 136-191 318-151 506 24 112 92 228 178 303 169 148 418 178 621 75 33-16 62-28 64-25 8 8-108 63-171 81-33 10-94 17-140 17-142 1-244-33-360-121-38-29-66-46-63-39 70 170 497 1278 497 1289 0 8-25 46-56 83-98 118 172 106-2239 106H3764l-44-22zm4255 1c31-8 58-25 90-58l46-46-1121-3c-616-1-1624-1-2241 0l-1121 3 38 43c22 24 56 49 79 57 34 12 361 14 2113 15 1484 0 2086-3 2117-11zm154-138c7-5 13-19 13-32 0-32-518-1358-539-1381-15-17-102-18-1733-18-1357 0-1720 3-1733 13-15 11-532 1317-545 1375-12 56-175 52 2272 52 1261 0 2257-4 2265-9zM6200 3364c0-37-5-51-29-75l-29-29h-306c-170 0-316 4-330 10-40 15-75 108-49 133 3 4 172 7 375 7h368v-46zm2510-119c24-13 29-21 32-67 4-47 2-56-20-74-30-27-89-45-167-52-79-6-65 7 20 19 37 5 75 14 84 20 13 8 11 9-9 5-14-4-51-9-84-13l-58-6 16 31c13 25 24 32 61 38 41 6 88 1 133-12 9-3 4 2-12 11-22 13-46 16-98 13l-69-4 7 46c4 25 12 48 18 52 19 13 116 9 146-7zm-2721-71c17-22 21-41 21-108 0-109-12-126-85-126h-55l-39-62-40-62-27 62-27 62h-50c-78 0-87 13-87 131 0 132-5 129 206 129h163l20-26zm1263-171c15-13 18-32 18-114 0-90-2-99-22-113-13-9-43-16-70-16-46 0-47 0-84-61l-37-61-26 61-26 61h-52c-75 0-93 26-93 134 0 129-4 126 202 126 145 0 174-3 190-17zm-832-13c17-17 20-33 20-110 0-112-13-130-90-130h-51l-38-61-39-61-27 61-28 61h-50c-78 0-87 14-87 128 0 137-7 132 202 132 155 0 170-2 188-20zm-848-7c15-13 18-32 18-110 0-115-12-133-90-133h-50l-38-60-38-61-26 61-27 60h-50c-79 0-91 18-91 132 0 132-7 128 203 128 145 0 173-3 189-17z" style="fill:#737373" transform="matrix(.1 0 0 -.1 -2 569.7)"/>
  <path d="M3686 4830c-3-6 449-1218 462-1240 8-13 226-15 1716-18l1707-3 15 38c31 73 454 1214 454 1223 0 10-4350 10-4354 0zm3758-78c3-5-10-58-28-118-39-126-267-849-297-941l-21-63H5870c-970 0-1230 3-1237 13-5 6-63 183-128 392s-142 454-171 544c-29 91-51 168-48 173 7 11 3151 10 3158 0z" style="fill:#4CAF50" transform="matrix(.1 0 0 -.1 -2 569.7)"/>
  <path d="M4385 4585c3-16 68-232 144-480l138-450 1200-3 1200-2 56 187c32 104 97 320 146 481 48 161 85 295 81 297s-674 4-1489 2l-1482-2 6-30zm615-50c0-13-32-15-252-13-190 2-252 6-256 16-3 9 52 12 252 12 222 0 256-2 256-15zm230 0c0-11-12-15-45-15s-45 4-45 15 12 15 45 15 45-4 45-15zm725 0c0-10-587-20-613-10-7 3-10 9-7 15 9 14 620 9 620-5zm833 3c-4-10-81-13-343-13s-339 3-342 13c-4 9 69 12 342 12s346-3 343-12zm-1548-72c0-2 3-11 6-20 5-13-2-16-39-16-42 0-67 17-50 34 7 7 83 8 83 2zm-225-16c4-7-60-10-184-10-121 0-191 4-191 10s68 10 184 10c113 0 187-4 191-10zm1813-2c-4-10-105-13-463-13s-459 3-462 13c-4 9 93 12 462 12s466-3 463-12zm412 2c0-6-54-10-141-10-91 0-138 4-134 10s62 10 141 10c83 0 134-4 134-10zm-2207-85c-4-12-493-19-493-7 0 5 3 12 7 16 11 11 488 2 486-9zm225-2c2-9-10-13-42-13-35 0-46 4-46 16s9 14 42 12c23-2 43-9 46-15zm1962 2c0-13-73-15-600-15-330 0-600 4-600 8 0 5 3 12 7 15 3 4 273 7 600 7 520 0 593-2 593-15zm-2180-75c36-24-16-31-205-28-193 4-272 17-165 29 95 10 354 9 370-1zm228-7c2-9-10-13-42-13-35 0-46 4-46 16s9 14 42 12c23-2 43-9 46-15zm1929 1c2-6-2-13-9-15-28-9-1348 3-1348 12 0 5 256 10 623 12 785 3 730 4 734-9zm-1397-4c0-6-27-10-60-10s-60 4-60 10 27 10 60 10 60-4 60-10zm-526-75c4-12-4-15-39-15-33 0-45 4-45 15s11 15 39 15c25 0 41-5 45-15zm524 8c160-12 79-23-173-23-157 0-255 4-255 10 0 8 38 11 275 18 39 1 107-1 153-5zm-738-13c0-6-85-10-235-10s-235 4-235 10 85 10 235 10 235-4 235-10zm1585 0c-4-6-113-10-296-10-186 0-289 4-289 10s105 10 296 10c194 0 293-3 289-10zm-1570-75c0-10-258-20-283-10-7 3-10 10-7 15 9 14 290 9 290-5zm213-2c6-20-74-17-82 3-5 12 2 15 36 12 23-2 43-9 46-15zm1167 2c0-7-188-11-537-13-475-2-538 0-538 13s63 15 538 13c349-2 537-6 537-13zm240-5c-3-5-33-10-65-10s-62 5-65 10c-4 6 20 10 65 10s69-4 65-10zm-1605-70c0-6-83-10-230-10s-230 4-230 10 83 10 230 10 230-4 230-10zm210 0c0-5-18-10-40-10s-40 5-40 10c0 6 18 10 40 10s40-4 40-10zm390 0c0-6-57-10-150-10s-150 4-150 10 57 10 150 10 150-4 150-10zm1100 0c0-7-173-10-500-10s-500 3-500 10 173 10 500 10 500-3 500-10zm240 0c0-5-25-10-55-10s-55 5-55 10c0 6 25 10 55 10s55-4 55-10zm-1930-69c0-5-14-11-31-15-40-8-312-8-333 0-46 17 2 24 174 24 105 0 190-4 190-9zm205-1c4-6-10-10-34-10-23 0-41 5-41 10 0 6 15 10 34 10s38-4 41-10zm195 0c0-5-22-10-50-10-27 0-50 5-50 10 0 6 23 10 50 10 28 0 50-4 50-10zm1160 0c0-7-184-10-531-10-351 0-528 3-524 10 4 6 192 10 531 10 343 0 524-3 524-10zm-1545-70c4-7-60-10-184-10-121 0-191 4-191 10s68 10 184 10c113 0 187-4 191-10zm198 4c13-13-3-20-37-16-20 2-36 8-36 13 0 10 63 12 73 3zm872-4c4-6-40-10-125-10s-129 4-125 10 57 10 125 10 121-4 125-10zm905 0c0-6-133-10-380-10s-380 4-380 10 133 10 380 10 380-4 380-10zm-1960-70c0-6-73-10-199-10-123 0-202 4-206 10-4 7 65 10 199 10 131 0 206-4 206-10zm195 0c4-6-10-10-34-10-23 0-41 5-41 10 0 6 15 10 34 10s38-4 41-10zm325 0c0-5-25-10-55-10s-55 5-55 10c0 6 25 10 55 10s55-4 55-10zm1420 0c0-7-230-10-670-10s-670 3-670 10 230 10 670 10 670-3 670-10zm-1955-64c17-1-32-4-108-4-76-1-136 1-134 6 5 6 172 6 242-2zm215-1c0-10-11-15-35-15s-35 5-35 15 11 15 35 15 35-5 35-15zm938 3c-4-10-96-14-409-16-401-3-455 0-444 18 4 6 167 10 431 10 336 0 425-3 422-12zm165-5c-13-2-35-2-50 0-16 2-5 4 22 4 28 0 40-2 28-4zm-1283-63c0-6-76-10-209-10-129 0-212 4-216 10-4 7 68 10 209 10 137 0 216-4 216-10zm190 0c0-5-16-10-35-10s-35 5-35 10c0 6 16 10 35 10s35-4 35-10zm1375 0c-4-6-230-10-645-10s-641 4-645 10c-4 7 213 10 645 10s649-3 645-10z" style="fill:#737373" transform="matrix(.1 0 0 -.1 -2 569.7)"/>
  <path d="M866.6 258.7c-.3.5-.1 1 .4 1 .6 0 1-.5 1-1 0-.6-.1-1-.3-1-.3 0-.8.4-1.1 1z"/>
  <path d="M5741 3136c-18-22-16-126 3-144 9-9 19-13 23-9 3 4 1 13-5 19-15 15-16 114-2 123 12 8 13 25 1 25-5 0-14-6-20-14zM5835 3131c8-28 9-104 0-130-5-16-3-20 9-15 9 4 16 18 16 34s5 32 10 35c7 4 8 11 1 18-5 7-11 25-13 41-1 16-9 31-17 34-9 3-11-2-6-17zM7048 2913c12-2 32-2 45 0 12 2 2 4-23 4s-35-2-22-4zM7048 2873c12-2 32-2 45 0 12 2 2 4-23 4s-35-2-22-4zM6140 2928c-11-12-18-28-15-36 3-7 5-27 5-43 0-17 5-29 13-29 9 0 12 11 9 35-3 27-1 35 12 35 22 0 20 20-1 20-17 1-17 1 0 14 9 7 17 16 17 20 0 13-20 5-40-16zM6202 2898c-6-6-12-20-12-29 0-36 12-49 46-49 27 0 37 5 43 23 18 44-44 88-77 55zm53-38c0-16-6-26-18-28-19-4-32 20-23 44 9 25 41 13 41-16zM6310 2864c0-24 5-44 10-44 6 0 10 14 10 30 0 18 6 33 15 36 23 9 18 22-10 22-23 0-25-4-25-44zM5327 2933c-11-10-8-123 3-123 6 0 10 28 10 65 0 65-1 71-13 58zM5222 2888c-7-7-12-21-12-33s5-26 12-33c15-15 68-16 68-1 0 6-7 9-15 5-18-6-45 2-45 15 0 5 16 9 35 9 22 0 35 5 35 13 0 19-21 37-45 37-12 0-26-5-33-12zm58-19c0-5-11-9-25-9-26 0-34 15-12 23 16 5 37-3 37-14zM5377 2893c-15-15-6-42 16-45 12-2 20-7 17-13-3-5-13-9-22-8-10 2-18-2-18-8s14-9 33-7c24 2 32 8 32 23 0 13-8 21-22 23-31 5-29 22 2 22 14 0 25 5 25 10 0 11-53 14-63 3zM5472 2888c-7-7-12-21-12-33s5-26 12-33c15-15 68-16 68-1 0 6-7 9-15 5-18-6-45 2-45 15 0 5 16 9 35 9 22 0 35 5 35 13 0 19-21 37-45 37-12 0-26-5-33-12zm58-18c0-5-11-10-25-10s-25 5-25 10c0 6 11 10 25 10s25-4 25-10z" style="fill:#1a202e" transform="matrix(.1 0 0 -.1 -2 569.7)"/>
  <path d="M7985 3536c-90-28-165-94-206-181-24-50-29-73-29-136 0-64 5-85 30-137 36-72 92-124 169-161 48-22 69-26 151-26 115 0 163 19 244 95 90 85 124 202 92 314-14 47-20 56-34 51-9-4-51-14-93-22l-76-16 11-29c12-32 4-51-35-80-27-20-121-41-144-32-21 8-19 24 3 24 20 0 52 29 52 47 0 20-37 43-68 43-44 0-42 25 4 52l35 21-35 29c-20 16-36 39-36 50s20 40 44 64l43 44-41-1c-22 0-59-6-81-13z" style="fill:#AF4CAB" transform="matrix(.1 0 0 -.1 -2 569.7)"/>
  <path d="M4773 3190c-34-14-43-42-44-132 0-67-2-79-11-60-17 35-69 44-231 40l-149-3-25-29c-23-27-25-35-21-124 3-84 5-96 27-113 15-13 39-19 71-19h48l27-65c16-36 31-65 34-65s24 29 46 65l39 65h52c76 0 94 26 94 131v78l25-24c19-20 34-25 73-25h48l30-67 30-68 43 68c42 66 44 67 86 67 24 0 51 3 60 6 30 12 45 60 45 144 0 77-2 83-29 111l-29 29-159-1c-87 0-168-4-180-9zm361-26c12-12 16-38 16-114 0-91-2-100-22-114-13-9-43-16-70-16-46 0-47-1-80-55-18-30-36-55-39-55-4 0-17 25-30 55l-23 55h-48c-39 0-54 5-73 25-23 22-25 32-25 107 0 131-5 128 205 128 144 0 176-3 189-16zm-438-158c16-12 20-29 22-103 3-78 1-91-18-116-18-23-29-27-73-27h-52l-33-55c-18-30-37-55-41-55s-18 25-30 55l-23 55h-51c-78 0-87 13-87 131 0 75 4 101 16 113 22 22 340 24 370 2z" style="fill:#737373" transform="matrix(.1 0 0 -.1 -2 569.7)"/>
  <path d="M4880 3050c0-73 2-80 20-80 11 0 20 5 20 10 0 6-4 10-10 10-14 0-12 114 2 128 9 9 7 12-10 12-21 0-22-4-22-80zM4988 3118c14-14 16-128 2-128-5 0-10-4-10-10 0-5 9-10 20-10 18 0 20 7 20 80 0 76-1 80-22 80-17 0-19-3-10-12zM4470 2950c0-5 7-10 15-10s15 5 15 10c0 6-7 10-15 10s-15-4-15-10zM4543 2953c-7-2-13-11-13-18s-6-16-12-19c-10-5-10-7 0-12 6-3 12-21 12-40s5-34 10-34c6 0 10 15 10 34s6 37 13 40c10 5 10 7 0 12-18 8-16 24 2 24 8 0 15 5 15 10 0 10-16 12-37 3zM4470 2875c0-29 4-45 13-45 8 0 11 14 9 45-2 25-8 45-13 45s-9-20-9-45zM6640 3130c0-5 5-10 10-10 6 0 10 5 10 10 0 6-4 10-10 10-5 0-10-4-10-10zM6640 3049c0-17 4-28 10-24 6 3 10 17 10 31 0 13-4 24-10 24-5 0-10-14-10-31z" style="fill:#1a202e" transform="matrix(.1 0 0 -.1 -2 569.7)"/>
  <path d="M4297 2573c-4-3-7-305-7-669v-663l148-3 147-3 3-184 2-184-28-51c-31-54-87-214-79-222 3-3 17 32 32 78s40 106 56 134l29 51v279c-1 204-5 297-15 344-19 87-19 141 2 170 16 22 16 23 0 17-14-5-17 0-17 36 0 73 25 144 70 197 23 28 49 50 57 50 9 0 34 21 56 46 31 35 46 45 64 41 12-2 28 2 35 10 10 12 7 13-17 7-21-5-26-3-23 6 8 24 36 36 56 24 28-18 26-56-6-99-15-22-36-69-45-105-15-62-15-68 5-133 24-80 52-105 62-55 3 17 9 76 13 132 7 110 41 222 108 355 27 54 41 72 62 77 20 6 31 2 45-16 23-28 23-50-2-108-34-82-51-220-48-388 3-142 10-188 21-131 2 12 3 0 0-26-3-32 0-47 7-42 5 3 10 27 10 53 1 100 29 292 58 392 17 58 33 120 37 137 8 39 36 62 70 55 42-8 48-24 41-124-12-181-17-554-9-628l9-75 27 85c15 47 34 112 43 145 20 75 75 135 123 135 40 0 45-14 26-75-8-28-15-84-15-125 0-53-10-112-34-200-54-203-136-349-289-516-60-64-117-135-129-157-31-62-109-269-105-280 2-6 29 55 60 134s67 158 79 176c13 17 66 78 120 135 96 104 184 240 240 375l22 53h333c309 0 333-1 333-17 0-35 55-125 110-181 31-32 101-94 155-139 55-44 107-89 116-99 10-11 48-116 85-234 72-227 71-226 79-219 6 7-132 438-146 456-7 8-72 64-145 124-191 158-233 219-249 359-4 36-18 102-31 148-28 95-28 104-11 120 6 7 13 23 13 35 2 30 23 127 29 138 8 12 51 12 74-1 27-14 41-58 45-136 2-38 13-100 24-137 18-58 19-69 7-74-22-8-18-22 4-16 14 4 24 24 38 83 23 96 21 105-96 339-178 354-211 481-125 481 28 0 57-36 112-138 24-43 93-146 154-228l111-148 44 49c41 47 56 74 32 59-9-5-11 27-7 122 4 109 3 123-7 89l-12-40-16 32c-10 18-17 39-17 48 0 8-4 15-10 15-5 0-10-5-10-10 0-16 38-88 50-95 7-4 7-13 0-26-12-21-68-26-101-9-39 21-16 101 49 173 35 37 81 36 149-3 28-16 54-34 58-40 3-5 24-10 45-10 51 0 83-13 135-56 24-19 60-38 79-41 39-6 65-34 91-97 15-35 15-36-7-37h-23l23-9c12-5 25-17 29-26 3-9-1-74-10-143-13-93-17-204-17-416V995l57-199c31-110 58-195 60-189 2 5-21 98-52 206-52 187-55 202-55 312v115h390v89l36-24c37-25 37-25 268-23l231 2-230 6c-260 6-275 10-295 77-8 26-10 203-8 561l3 524 33 29 33 30 654-3c359-2 648 0 642 4-7 4-303 8-658 8-631 0-647 0-672-20-14-11-28-20-31-20s-6 23-6 50v50H5872c-863 0-1572-3-1575-7zm3133-668v-655h-370v70h100v180h-50c-27 0-50 5-50 10 0 6 58 10 155 10h155v180h-150c-93 0-150 4-150 10s20 10 45 10h45v180h-44c-25 0-48 5-51 10-4 6 7 10 25 10h31l-3 88-3 87-87 3-88 3v-36c0-46-24-43-28 3-3 30-6 32-40 32-20 0-44 5-52 10-10 6-11 10-2 10s12 25 12 90v90h-180v-65c0-53-3-63-15-59-11 5-15 22-15 65v59h-179l-3-97-3-98-62-3-63-3v-36c0-35-1-36-15-17-8 10-15 25-15 33s-8 20-17 27c-16 11-6 13 65 14h82v181l-87-3-88-3-5-70c-5-65-6-68-17-42-7 15-13 48-13 72v45h-170v-90c0-87 1-90 23-90 31 0 47-46 47-133v-67h29c17 0 33-4 36-10 3-5 1-10-4-10-7 0-11-27-11-69 0-86-21-131-62-131h-28v-88c0-55 4-92 12-100 9-9-50-12-265-12-178 0-277 4-277 10s18 10 40 10h40v180h-30c-16 0-30 5-30 10 0 6 32 10 75 10h75v181l-87-3-88-3-3-83c-2-60-6-82-15-79-8 2-13 33-15 85l-3 82h-89c-53 0-90 4-90 10s30 10 70 10h71l-3 88-3 87-57 3c-32 2-58 7-58 12 0 6 9 10 20 10 19 0 20 7 20 90v90h-180v-62c0-35-3-80-6-100-6-34-10-38-35-38-16 0-29 5-29 10 0 6 9 10 20 10 19 0 20 7 20 90v90h-180v-68c0-43-6-81-16-100l-15-32h-309v-84c0-46-3-91-6-100-5-14-27-16-140-16h-134v-180h101c64 0 98-4 94-10-3-6-48-10-101-10h-94v-179l101-3 102-3-2-97c-1-64 2-98 8-98s11-16 11-35v-36l-135 3c-74 2-135 6-135 11v1297h3120v-655zm-2282 340 2-40-15 27c-28 51-107 46-121-7-10-40-19-29-16 18l4 42h143l3-40zm207-34c0-79-16-105-35-57-12 31-53 49-92 41-27-6-28-6-28 38 0 24 2 46 5 49s38 4 78 4l72-1v-74zm719 58c-19-21-24-67-11-111 6-22 4-28-8-28s-15 14-15 73c0 41 2 76 5 78 2 3 14 5 26 6 20 2 21 1 3-18zm114-9c4-22 4-22-22-4-32 24-33 35-3 30 14-2 23-11 25-26zm210-52 3-78h-151v161l73-3 72-3 3-77zm210 30 3-47-30 9c-38 11-69 3-98-23l-23-20v129l73-1h72l3-47zm207-28v-75l-52-3c-82-5-93 6-93 88v68l73-1 72-2v-75zm-1669-66c-4-9-9-15-11-12-3 3-3 13 1 22s9 15 11 12c3-3 3-13-1-22zm-346-64c0-14-94-120-106-120-7 0-18-2-26-5-10-4-13 10-11 62 1 38 2 69 2 69 3 6 141 0 141-6zm140-4c0-21-52-146-60-146-20 0-20 23-1 54 12 18 21 49 21 68 0 27 4 34 20 34 11 0 20-5 20-10zm225-13c-20-85-38-133-48-133-30 1-34 15-24 82 8 56 14 68 31 71 46 9 48 8 41-20zm265-53v-81l-57 3-58 3 3 40c1 22 5 57 8 78 6 37 6 37 55 37h49v-80zm975 52c-9-41 9-77 45-92 42-18 33-34-22-38-42-3-48 0-77 35-22 27-31 48-31 74 0 45 4 49 52 49 38 0 39-1 33-28zm485 12c0-8-4-12-10-9-5 3-10 10-10 16 0 5 5 9 10 9 6 0 10-7 10-16zm210-64c0-76-1-80-22-80-16 1-31 14-50 45-17 28-35 45-50 47-23 3-34 27-24 54 4 10 24 14 76 14h70v-80zm-956-57c6-17 3-23-8-23-12 0-16 10-16 38 1 38 10 32 24-15zm406 2c0-8-4-15-10-15-5 0-10 7-10 15s5 15 10 15c6 0 10-7 10-15zm-30-15c0-11 5-20 10-20 6 0 10-4 10-10s-30-10-69-10-73 5-76 10c-4 6 13 10 44 10 44 0 51 3 51 20 0 11 7 20 15 20s15-9 15-20zm-1636-112c-3-51-8-95-10-97s-4 35-4 82c0 71-3 87-15 87-8 0-15 5-15 10 0 6 12 10 26 10h26l-8-92zm232 75c-2-10-7-48-11-85-12-126-23-131-24-10-1 107 0 112 20 112 15 0 19-5 15-17zm-520-38c-9-13-21-47-27-75l-11-50h-188v150h242l-16-25zm253-57c-1-79-1-81-14-53-8 17-14 42-15 57 0 28 16 78 25 78 3 0 5-37 4-82zm631 2v-80h-150v160h150v-80zm208 3-3-78-72-3-73-3v161h151l-3-77zm830 25c-2-28-8-53-15-55-11-4-83 81-83 98 0 5 23 9 51 9h50l-3-52zm632-28v-80h-68l-4 76c-2 42-1 78 1 80s19 4 38 4h33v-80zm-934-1c35-70 35-72 12-65-13 4-33 10-45 13-21 5-23 11-23 64 0 33 4 59 10 59 5 0 26-32 46-71zm-838-89c55 0 64-2 52-13-10-9-34-12-72-9l-58 4 2 86 2 87 3-77 4-78h67zm-508-10c0-5-4-10-10-10-5 0-10 5-10 10 0 6 5 10 10 10 6 0 10-4 10-10zm-320-64c0-24 3-58 6-75l7-31h-193v150h180v-44zm537 22c-3-8-6-5-6 6-1 11 2 17 5 13 3-3 4-12 1-19zm303 12c0-5-10-39-21-75-19-56-25-65-45-65-23 0-24 3-24 75v75h45c25 0 45-4 45-10zm210-65v-75h-35c-34 0-35 1-35 36 0 20 5 54 12 75 9 31 16 39 35 39 22 0 23-3 23-75zm515 43c-4-17-13-45-21-62l-13-31-2 33c-1 38-1 80 0 87 1 3 10 5 22 5 18 0 20-4 14-32zm1245-43v-75h-305l3 52c6 106-8 98 157 98h145v-75zm-1040-23 20-52h-60v62c0 72 10 69 40-10zm-980-82c0-5-7-10-15-10s-15 5-15 10c0 6 7 10 15 10s15-4 15-10zm995 0c-3-5-15-10-26-10-10 0-19 5-19 10 0 6 12 10 26 10s23-4 19-10zm-273-28c24-2 29-9 43-54 8-28 15-62 15-75v-23h-310c-216 0-310 3-310 11 0 6 8 39 17 74 16 60 19 64 47 67 32 3 449 3 498 0zm1078-75v-78l-42 3-43 3-3 64c-2 35-1 69 1 75 3 6 23 11 46 11l41 1v-79zm-1810 61c0-7-5-20-10-28-8-12-10-9-10 13 0 15 5 27 10 27 6 0 10-6 10-12zm999 5c-1-16-18-48-18-36-1 6-4 18-7 27-4 11-1 16 10 16 9 0 16-3 15-7zm-1742-115c-2-13-4-3-4 22s2 35 4 23c2-13 2-33 0-45zm1541-70c3-25 0-27-51-33-68-9-583-2-592 7-4 4-5 19-1 33l6 25 318-2 317-3 3-27z" style="fill:#737373" transform="matrix(.1 0 0 -.1 -2 569.7)"/>
  <path d="M434 328.7v9h31.2l-.3-8.8-.3-8.7-15.2-.3-15.3-.3v9.1zm29 .5v7.5h-28v-15h28v7.5zM467 329.7v9h18.2l-.3-8.8-.3-8.7-8.7-.3-8.8-.3v9.1zm16 .5v7.5h-14.9v-15h15v7.5zM488 329.7v9h18.2l-.3-8.8-.3-8.7-8.7-.3-8.8-.3v9.1zm16 .5v7.5h-14.9v-15h15v7.5zM509 329.7v9.1l8.9-.3 8.7-.3v-17l-8.7-.3-8.8-.3v9.1zm16 .5v7.5h-14.9v-15h15v7.5zM530 329.7v9h17.1v-18h-17v9zm16 .5v7.5h-14.9v-15h15v7.5zM550.8 321.4c-.4.3-.7 4.4-.7 9v8.3h18v-18h-8.3c-4.6 0-8.7.3-9 .7zm16.3 8.8v7.5h-15v-15h15v7.5zM571.8 321.4c-.4.3-.7 4.4-.7 9v8.3h18v-18h-8.3c-4.6 0-8.7.3-9 .7zm16.3 8.8v7.5h-15v-15h15v7.5zM592 329.7v9h18v-18h-18v9zm16.9.2-.3 7.3-7.2.3-7.3.3v-15.1h15.1l-.3 7.2zM613 329.7v9h18v-18h-18v9zm16.9.2-.3 7.3h-15l-.3-7.3-.3-7.2h16.2l-.3 7.2zM634 329.7v9h18v-18h-18v9zm16 .5v7.6l-7.1-.3-7.3-.3-.3-7.3-.3-7.2H650v7.5zM655 329.7v9h18.2l-.3-8.8-.3-8.7-8.7-.3-8.8-.3v9.1zm16 .5v7.5h-14.9v-15h15v7.5zM676 329.7v9h18.2l-.3-8.8-.3-8.7-8.7-.3-8.8-.3v9.1zm16 .5v7.5h-14.9v-15h15v7.5zM697 329.7v9h17.1v-18h-17v9zm16 .5v7.5h-14.9v-15h15v7.5zM717.8 321.4c-.4.3-.7 4.4-.7 9v8.3h18v-18h-8.3c-4.6 0-8.7.3-9 .7zm16.3 8.8v7.5h-15v-15h15v7.5zM434 348.7v9h17.1v-18h-17v9zm15.9.2.3 7.8H435v-7.3c0-4 .3-7.7.7-8 .4-.5 3.7-.7 7.3-.5l6.5.3.3 7.7zM454.8 340.4c-.4.3-.7 4.4-.7 9v8.3h18v-18h-8.3c-4.6 0-8.7.3-9 .7zm16 8.5.4 7.8H456v-15.6h7.3l7.2.1.3 7.7zM475.8 340.4c-.4.3-.7 4.4-.7 9v8.3h18v-18h-8.3c-4.6 0-8.7.3-9 .7zm16 8.5.4 7.8H477v-15.6h7.3l7.2.1.3 7.7zM538 348.7v9h18v-18h-18v9zm16 .2v8l-7.1-.4-7.3-.3-.3-6.4c-.4-9.2-.4-9.2 7.8-9l7 .2v8zM559 348.7v9h18.2l-.3-8.8-.3-8.7-8.7-.3-8.8-.3v9.1zm16 .2v7.8h-14.9v-7.3c0-4 .3-7.7.7-8 .4-.5 3.8-.7 7.5-.6l6.8.2v8zM580 348.7v9.1l8.9-.3 8.7-.3v-17l-8.7-.3-8.8-.3v9.1zm16 .2v7.8h-14.9v-7.3c0-4 .3-7.7.7-8 .4-.5 3.8-.7 7.5-.6l6.8.2v8zM684 348.7v9h18v-18h-18v9zm16.6 0v7.5h-15l-.3-6.4c-.2-3.5-.1-7 .2-7.7.3-.8 2.7-1.2 7.8-1l7.3.1v7.5zM705.3 349.4l.3 8.8 14.8.3 14.7.3v-18H705l.3 8.6zm28.8-.2v7.5h-28v-15h28v7.5zM434 368.7v9h25.1v-18h-25v9zm23.6 0v7.5l-11.2.3-11.3.3v-7.4c0-4 .3-7.7.7-8 .4-.4 5.4-.6 11.2-.5l10.6.3v7.5zM546 368.7v9h17.1v-18h-17v9zm15.9.2.3 7.8H547v-7.3c0-4 .3-7.7.7-8 .4-.5 3.7-.7 7.3-.5l6.5.3.3 7.7zM566.5 361c-.3.8-.4 4.7-.2 8.8l.3 7.4 8.8.3 8.7.3v-18h-8.5c-6.3 0-8.7.3-9.1 1.2zm16.4 8 .3 7.7H568v-16l7.3.2 7.2.3.3 7.7zM587.5 361c-.3.8-.4 4.7-.2 8.8l.3 7.4 8.8.3 8.7.3v-18h-8.5c-6.3 0-8.7.3-9.1 1.2zm16.4 8 .3 7.7H589v-16l7.3.2 7.2.3.3 7.7zM713 368.7c0 8.3.3 9 2 9 1.9 0 2 .8 2.3 9.7l.3 9.8 8.8.3 8.7.3v-38h-22v9zm20.6 10v17.5l-7.2.3-7.3.3v-20h-2.5c-2.4 0-2.5-.3-2.5-7.4 0-4 .3-7.7.7-8 .4-.5 4.8-.6 9.8-.5l9 .3v17.5zM571 388.7v9h18v-18h-18v9zm16.6 0v7.5l-7.2.3-7.3.3v-16.2l7.3.3 7.2.3v7.5zM592 388.7v9h18v-18h-18v9zm16.6 0v7.5l-7.2.3-7.3.3v-16.2l7.3.3 7.2.3v7.5zM562.3 408.4l.3 8.8 8.8.3 8.7.3v-18H562l.3 8.6zm16.8-.2v7.5h-15v-15h15v7.5zM583.3 408.4l.3 8.8 8.8.3 8.7.3v-18H583l.3 8.6zm16.8-.2v7.5h-15v-15h15v7.5zM434 428.7v9h17.1v-18h-17v9zm15.9.3.3 7.7H435v-7.3c0-4 .3-7.6.6-7.9a26 26 0 0 1 7.2-.4l6.7.1.3 7.8zM717.5 421c-.3.8-.4 4.7-.2 8.8l.3 7.4 8.8.3 8.7.3v-18h-8.5c-6.3 0-8.7.3-9.1 1.2zm16.4 8 .3 7.7H719V421l7.3.1 7.2.1.3 7.7z"/>
  <path d="M8037 2390c-176-45-255-195-244-465 9-212 67-367 174-465 82-75 153-88 240-44 129 63 219 249 238 489 13 156-26 316-99 402-58 69-206 109-309 83zm84-56c0-21-3-58-7-81-5-32-1-53 15-86 24-49 29-127 8-127-44 0-193-24-256-41-40-11-76-17-79-14-3 2 0 42 6 86 20 138 77 235 166 281 42 22 126 39 139 28 4-3 7-24 8-46zm154 11c22-13 50-34 62-47 51-55 93-178 93-273v-43l-55 19c-30 10-87 24-126 29-39 6-76 13-81 16-6 4-8 30-3 68 11 97 9 144-9 170-8 14-18 42-22 64l-6 40 53-10c30-5 72-20 94-33zm-115-137c0-47-12-63-24-32-3 9-6 39-6 67 1 48 2 50 15 33 9-11 15-41 15-68zm209-218 64-23-6-92c-4-64-14-119-36-184-85-252-241-350-392-245-99 68-176 241-194 436l-7 78 28 11c137 53 418 63 543 19z" style="fill:#737373" transform="matrix(.1 0 0 -.1 -2 569.7)"/>
  <path d="M828.5 383.4c0 6.2.4 11.3.9 11.3.9 0 .8-16.6-.2-20-.4-1.4-.7 2.6-.7 8.7zM827 399.8c0 .5.6.7 1 .4.7-.3 1-.8 1-1 0-.3-.3-.5-1-.5-.4 0-1 .5-1 1.1zM824.7 407.1c-1 2.6-3.3 7-5.1 9.7-2 2.7-3 5-2.5 5 2 0 10.5-16 9.7-18.4-.1-.5-1.1 1.1-2.1 3.7z"/>
  <g>
    <path style="opacity:.25;fill:#212121" d="m17.1 10.8 11 .2.8 27.8v78.4h70a4 4 0 0 0 4-4V10.8H17z" transform="matrix(.64411 0 0 .45715 296.6 254.8)"/>
    <path style="fill:#fff" d="M95.9 114.1H18a4 4 0 0 1-4-4V8a4 4 0 0 1 4-4H96a4 4 0 0 1 4 4v102.1a4 4 0 0 1-4 4z" transform="matrix(.64411 0 0 .45715 296.6 254.8)"/>
    <path style="fill:#6fbff0" d="M95.9 7c.5 0 1 .5 1 1v102.1c0 .6-.5 1-1 1H18a1 1 0 0 1-1-1V8c0-.6.5-1 1-1H96m0-3H18a4 4 0 0 0-4 4v102.1a4 4 0 0 0 4 4H96a4 4 0 0 0 4-4V8a4 4 0 0 0-4-4z" transform="matrix(.64411 0 0 .45715 296.6 254.8)"/>
    <path style="fill:none;stroke:#b0bec5;stroke-width:3.8648;stroke-linecap:round;stroke-miterlimit:10" d="M27.1 30.5h57.1M27.1 44.3h57.1M27.1 58h57.1M27.1 71.8h57.1M27.1 85.6h24.4" transform="matrix(.64411 0 0 .45715 296.6 254.8)"/>
    <path style="fill:#9ccc65" d="M116 76c0 .6-.3 1.2-.8 1.3-1.4.4-4.3 1-8 1H95c-.5 0-1-.2-1.3-.5l-4.1-4c-1-.8-1-2.5 0-3.4l4-4A2 2 0 0 1 95 66h15.5c1.6 0 3-.3 4.1-.6.8-.1 1.5.5 1.5 1.4V76z" transform="matrix(.64411 0 0 .45715 296.6 254.8)"/>
  </g>
  <g>
    <g fill-rule="evenodd">
      <path d="M299 246.6v.5l.6 1.1.2.2.2.1c.1 0 1.2 0 2-.2s3.2-.5 5.6-1.1 6-2 6.1-2l14-4.9 5.2-2c8-3.3 17-6.4 23.1-9l3-2.3c.4-.2.5-.7.4-.9s-.3-1-1-1.3-1.2 0-1.8 0-3.4.8-6.5 1.7-12.8 4.5-12 4.3l-11 3.9-1.8.7-1.2.4a954.6 954.6 0 0 1-17 6.3c-.8.3-2.7 1-4 1.9-1.3.8-3.1 1.7-4.1 2.6z" fill="#777"/>
    </g>
  </g>
</svg>
